# xmcd CD database file
#
# Track frame offsets:
#	150
#	10072
#	23702
#	37717
#	55965
#	64235
#	90192
#	91292
#	102685
#	109682
#	124770
#	134067
#	187432
#
# Disc length: 2685 seconds
#
# Revision: 0
# Processed by: cddbd v1.5.1PL0 Copyright (c) Steve Scherf et al.
# Submitted via: CDex 1.51
#
DISCID=ae0a7b0d
DTITLE=マイナーリーグ - 入れた鬼から来る選択
DYEAR=1900
DGENRE=Hardcore
TTITLE0=酔音
TTITLE1=一瞬の黒
TTITLE2=高見
TTITLE3=送る地平線
TTITLE4=馬の耳に拡声器
TTITLE5=道なき道、道ありき道
TTITLE6=DEATHCLOCK
TTITLE7=LIBERATION SONG
TTITLE8=I KILL FATHERとBLUE MOSH
TTITLE9=甘いバク夜車
TTITLE10=店内ロック・オン
TTITLE11=風の金縛り(with羅生門)
TTITLE12=笑う角には福来たる
EXTD=
EXTT0=
EXTT1=
EXTT2=
EXTT3=
EXTT4=
EXTT5=
EXTT6=
EXTT7=
EXTT8=
EXTT9=
EXTT10=
EXTT11=
EXTT12=
PLAYORDER=
